<?xml version="1.0" encoding="utf-8"?>
<!-- Generator: Moho 12.5 build 22438 -->
<!DOCTYPE svg PUBLIC "-//W3C//DTD SVG 1.1//EN" "http://www.w3.org/Graphics/SVG/1.1/DTD/svg11.dtd">
<svg version="1.1" id="Frame_0" xmlns="http://www.w3.org/2000/svg" xmlns:xlink="http://www.w3.org/1999/xlink" width="1280px" height="720px">
<path fill="none" stroke="#000000" stroke-width="30" stroke-linecap="round" stroke-linejoin="round" d="M 463.690 436.689 C 474.068 466.920 494.820 527.374 494.824 527.383 C 494.857 527.382 717.723 522.871 829.172 520.615 M 247.108 88.804 C 281.851 93.767 351.328 103.693 351.338 103.694 C 351.349 103.727 463.679 436.656 463.690 436.689 C 463.731 436.688 873.801 431.275 873.842 431.275 C 873.849 431.261 917.529 339.660 939.792 292.973 C 964.004 242.198 1013.260 138.904 1013.267 138.889 C 1013.253 138.890 933.303 147.544 868.171 154.593 C 823.954 159.379 775.488 164.625 728.030 169.762 C 665.275 176.554 601.263 183.482 546.692 189.388 C 510.842 193.269 474.211 197.234 437.971 201.156 "/>
<path fill="#ffffff" fill-rule="evenodd" stroke="none" d="M 554.951 545.365 C 583.677 545.365 607.044 568.691 607.044 597.851 C 607.044 627.010 583.677 650.335 554.951 650.335 C 526.225 650.335 502.858 627.010 502.858 597.851 C 502.858 568.691 526.225 545.365 554.951 545.365 Z"/>
<path fill="#ffffff" fill-rule="evenodd" stroke="none" d="M 765.674 545.365 C 794.400 545.365 817.767 568.691 817.767 597.851 C 817.767 627.010 794.400 650.335 765.674 650.335 C 736.948 650.335 713.581 627.010 713.581 597.851 C 713.581 568.691 736.948 545.365 765.674 545.365 Z"/>
<path fill="#000000" d="M 477.916 431.805 C 488.294 462.037 509.047 522.490 509.069 522.555 L 480.578 532.211 C 480.594 532.257 459.842 471.804 449.464 441.573 L 477.916 431.805 Z"/>
<path fill="#000000" d="M 494.494 512.345 C 494.553 512.344 717.419 507.833 828.868 505.577 L 829.477 535.653 C 718.027 537.909 495.161 542.420 495.153 542.420 L 494.494 512.345 Z"/>
<path fill="none" stroke="#000000" stroke-width="1" stroke-linecap="butt" stroke-linejoin="round" d="M 494.494 512.345 L 495.153 542.420 "/>
<path fill="#000000" d="M 592.281 404.337 C 573.312 333.701 551.135 263.926 532.166 193.290 L 561.219 185.487 C 580.188 256.123 595.951 327.621 614.921 398.257 L 592.281 404.337 Z"/>
<path fill="none" stroke="#000000" stroke-width="1" stroke-linecap="butt" stroke-linejoin="round" d="M 592.281 404.337 L 614.921 398.257 "/>
<path fill="#000000" d="M 545.074 174.435 C 599.644 168.528 663.657 161.600 726.411 154.808 L 729.648 184.715 C 666.894 191.508 602.881 198.436 548.311 204.342 L 545.074 174.435 Z"/>
<path fill="none" stroke="#000000" stroke-width="1" stroke-linecap="butt" stroke-linejoin="round" d="M 545.074 174.435 L 548.311 204.342 "/>
<path fill="#000000" d="M 726.411 154.808 C 773.870 149.671 822.336 144.425 866.552 139.639 L 869.789 169.547 C 825.573 174.333 777.107 179.579 729.648 184.715 L 726.411 154.808 Z"/>
<path fill="none" stroke="#000000" stroke-width="1" stroke-linecap="butt" stroke-linejoin="round" d="M 726.411 154.808 L 729.648 184.715 "/>
<path fill="#000000" d="M 866.552 139.639 C 931.685 132.590 1011.634 123.936 1011.649 123.935 L 1014.885 153.843 C 1014.871 153.844 934.922 162.498 869.789 169.547 L 866.552 139.639 Z"/>
<path fill="none" stroke="#000000" stroke-width="1" stroke-linecap="butt" stroke-linejoin="round" d="M 866.552 139.639 L 869.789 169.547 "/>
<path fill="#000000" d="M 1026.831 145.389 C 1026.836 145.378 977.580 248.672 953.368 299.447 L 926.215 286.499 C 950.427 235.724 999.683 132.430 999.703 132.389 L 1026.831 145.389 Z"/>
<path fill="none" stroke="#000000" stroke-width="1" stroke-linecap="butt" stroke-linejoin="round" d="M 1026.831 145.389 L 999.703 132.389 "/>
<path fill="#000000" d="M 953.368 299.447 C 931.105 346.134 887.426 437.735 887.419 437.748 L 860.266 424.801 C 860.272 424.787 903.952 333.186 926.215 286.499 L 953.368 299.447 Z"/>
<path fill="none" stroke="#000000" stroke-width="1" stroke-linecap="butt" stroke-linejoin="round" d="M 953.368 299.447 L 926.215 286.499 "/>
<path fill="#000000" d="M 874.033 446.315 C 874.000 446.315 463.930 451.728 463.880 451.729 L 463.500 421.649 C 463.532 421.649 873.603 416.235 873.652 416.235 L 874.033 446.315 Z"/>
<path fill="none" stroke="#000000" stroke-width="1" stroke-linecap="butt" stroke-linejoin="round" d="M 874.033 446.315 L 873.652 416.235 "/>
<path fill="#000000" d="M 449.442 441.508 C 449.427 441.464 337.097 108.536 337.090 108.513 L 365.586 98.875 C 365.601 98.919 477.931 431.847 477.938 431.870 L 449.442 441.508 Z"/>
<path fill="none" stroke="#000000" stroke-width="1" stroke-linecap="butt" stroke-linejoin="round" d="M 449.442 441.508 L 477.938 431.870 "/>
<path fill="#000000" d="M 349.209 118.584 C 349.200 118.583 279.724 108.657 244.981 103.694 L 249.235 73.914 C 283.978 78.877 353.455 88.802 353.467 88.804 L 349.209 118.584 Z"/>
<path fill="none" stroke="#000000" stroke-width="1" stroke-linecap="butt" stroke-linejoin="round" d="M 349.209 118.584 L 353.467 88.804 "/>
<path fill="#000000" d="M 548.311 204.342 C 512.460 208.223 475.830 212.187 439.589 216.110 L 436.352 186.202 C 472.593 182.280 509.223 178.315 545.074 174.435 L 548.311 204.342 Z"/>
<path fill="none" stroke="#000000" stroke-width="1" stroke-linecap="butt" stroke-linejoin="round" d="M 548.311 204.342 L 545.074 174.435 "/>
<path fill="#000000" d="M 477.916 431.805 C 488.294 462.037 509.047 522.490 509.069 522.555 L 480.578 532.211 C 480.594 532.257 459.842 471.804 449.464 441.573 L 477.916 431.805 Z"/>
<path fill="#000000" d="M 494.494 512.345 C 494.553 512.344 717.419 507.833 828.868 505.577 L 829.477 535.653 C 718.027 537.909 495.161 542.420 495.153 542.420 L 494.494 512.345 Z"/>
<path fill="none" stroke="#000000" stroke-width="1" stroke-linecap="butt" stroke-linejoin="round" d="M 494.494 512.345 L 495.153 542.420 "/>
<path fill="#000000" d="M 706.320 392.730 C 709.654 318.233 709.670 243.587 713.004 169.089 L 743.056 170.434 C 739.723 244.931 733.072 319.280 729.739 393.778 L 706.320 392.730 Z"/>
<path fill="none" stroke="#000000" stroke-width="1" stroke-linecap="butt" stroke-linejoin="round" d="M 706.320 392.730 L 729.739 393.778 "/>
<path fill="#000000" d="M 726.411 154.808 C 773.870 149.671 822.336 144.425 866.552 139.639 L 869.789 169.547 C 825.573 174.333 777.107 179.579 729.648 184.715 L 726.411 154.808 Z"/>
<path fill="none" stroke="#000000" stroke-width="1" stroke-linecap="butt" stroke-linejoin="round" d="M 726.411 154.808 L 729.648 184.715 "/>
<path fill="#000000" d="M 866.552 139.639 C 931.685 132.590 1011.634 123.936 1011.649 123.935 L 1014.885 153.843 C 1014.871 153.844 934.922 162.498 869.789 169.547 L 866.552 139.639 Z"/>
<path fill="none" stroke="#000000" stroke-width="1" stroke-linecap="butt" stroke-linejoin="round" d="M 866.552 139.639 L 869.789 169.547 "/>
<path fill="#000000" d="M 1026.831 145.389 C 1026.836 145.378 977.580 248.672 953.368 299.447 L 926.215 286.499 C 950.427 235.724 999.683 132.430 999.703 132.389 L 1026.831 145.389 Z"/>
<path fill="none" stroke="#000000" stroke-width="1" stroke-linecap="butt" stroke-linejoin="round" d="M 1026.831 145.389 L 999.703 132.389 "/>
<path fill="#000000" d="M 953.368 299.447 C 931.105 346.134 887.426 437.735 887.419 437.748 L 860.266 424.801 C 860.272 424.787 903.952 333.186 926.215 286.499 L 953.368 299.447 Z"/>
<path fill="none" stroke="#000000" stroke-width="1" stroke-linecap="butt" stroke-linejoin="round" d="M 953.368 299.447 L 926.215 286.499 "/>
<path fill="#000000" d="M 874.033 446.315 C 874.000 446.315 463.930 451.728 463.880 451.729 L 463.500 421.649 C 463.532 421.649 873.603 416.235 873.652 416.235 L 874.033 446.315 Z"/>
<path fill="none" stroke="#000000" stroke-width="1" stroke-linecap="butt" stroke-linejoin="round" d="M 874.033 446.315 L 873.652 416.235 "/>
<path fill="#000000" d="M 449.442 441.508 C 449.427 441.464 337.097 108.536 337.090 108.513 L 365.586 98.875 C 365.601 98.919 477.931 431.847 477.938 431.870 L 449.442 441.508 Z"/>
<path fill="none" stroke="#000000" stroke-width="1" stroke-linecap="butt" stroke-linejoin="round" d="M 449.442 441.508 L 477.938 431.870 "/>
<path fill="#000000" d="M 349.209 118.584 C 349.200 118.583 279.724 108.657 244.981 103.694 L 249.235 73.914 C 283.978 78.877 353.455 88.802 353.467 88.804 L 349.209 118.584 Z"/>
<path fill="none" stroke="#000000" stroke-width="1" stroke-linecap="butt" stroke-linejoin="round" d="M 349.209 118.584 L 353.467 88.804 "/>
<path fill="#000000" d="M 592.281 404.337 C 573.312 333.701 551.135 263.926 532.166 193.290 L 561.219 185.487 C 580.188 256.123 595.951 327.621 614.921 398.257 L 592.281 404.337 Z"/>
<path fill="none" stroke="#000000" stroke-width="1" stroke-linecap="butt" stroke-linejoin="round" d="M 592.281 404.337 L 614.921 398.257 "/>
<path fill="#000000" d="M 545.074 174.435 C 599.644 168.528 663.657 161.600 726.411 154.808 L 729.648 184.715 C 666.894 191.508 602.881 198.436 548.311 204.342 L 545.074 174.435 Z"/>
<path fill="none" stroke="#000000" stroke-width="1" stroke-linecap="butt" stroke-linejoin="round" d="M 545.074 174.435 L 548.311 204.342 "/>
<path fill="#000000" d="M 548.311 204.342 C 512.460 208.223 475.830 212.187 439.589 216.110 L 436.352 186.202 C 472.593 182.280 509.223 178.315 545.074 174.435 L 548.311 204.342 Z"/>
<path fill="none" stroke="#000000" stroke-width="1" stroke-linecap="butt" stroke-linejoin="round" d="M 548.311 204.342 L 545.074 174.435 "/>
<path fill="#000000" d="M 809.215 391.502 C 825.035 311.772 837.598 231.396 853.417 151.666 L 882.924 157.521 C 867.105 237.250 848.029 316.334 832.209 396.064 L 809.215 391.502 Z"/>
<path fill="#000000" d="M 866.552 139.639 C 931.685 132.590 1011.634 123.936 1011.649 123.935 L 1014.885 153.843 C 1014.871 153.844 934.922 162.498 869.789 169.547 L 866.552 139.639 Z"/>
<path fill="none" stroke="#000000" stroke-width="1" stroke-linecap="butt" stroke-linejoin="round" d="M 866.552 139.639 L 869.789 169.547 "/>
<path fill="#000000" d="M 1026.831 145.389 C 1026.836 145.378 977.580 248.672 953.368 299.447 L 926.215 286.499 C 950.427 235.724 999.683 132.430 999.703 132.389 L 1026.831 145.389 Z"/>
<path fill="none" stroke="#000000" stroke-width="1" stroke-linecap="butt" stroke-linejoin="round" d="M 1026.831 145.389 L 999.703 132.389 "/>
<path fill="#000000" d="M 953.368 299.447 C 931.105 346.134 887.426 437.735 887.419 437.748 L 860.266 424.801 C 860.272 424.787 903.952 333.186 926.215 286.499 L 953.368 299.447 Z"/>
<path fill="none" stroke="#000000" stroke-width="1" stroke-linecap="butt" stroke-linejoin="round" d="M 953.368 299.447 L 926.215 286.499 "/>
<path fill="#000000" d="M 874.033 446.315 C 874.000 446.315 463.930 451.728 463.880 451.729 L 463.500 421.649 C 463.532 421.649 873.603 416.235 873.652 416.235 L 874.033 446.315 Z"/>
<path fill="none" stroke="#000000" stroke-width="1" stroke-linecap="butt" stroke-linejoin="round" d="M 874.033 446.315 L 873.652 416.235 "/>
<path fill="#000000" d="M 477.916 431.805 C 488.294 462.037 509.047 522.490 509.069 522.555 L 480.578 532.211 C 480.594 532.257 459.842 471.804 449.464 441.573 L 477.916 431.805 Z"/>
<path fill="none" stroke="#000000" stroke-width="1" stroke-linecap="butt" stroke-linejoin="round" d="M 477.916 431.805 L 449.464 441.573 "/>
<path fill="#000000" d="M 494.494 512.345 C 494.553 512.344 717.419 507.833 828.868 505.577 L 829.477 535.653 C 718.027 537.909 495.161 542.420 495.153 542.420 L 494.494 512.345 Z"/>
<path fill="none" stroke="#000000" stroke-width="1" stroke-linecap="butt" stroke-linejoin="round" d="M 494.494 512.345 L 495.153 542.420 "/>
<path fill="#000000" d="M 706.320 392.730 C 709.654 318.233 709.670 243.587 713.004 169.089 L 743.056 170.434 C 739.723 244.931 733.072 319.280 729.739 393.778 L 706.320 392.730 Z"/>
<path fill="none" stroke="#000000" stroke-width="1" stroke-linecap="butt" stroke-linejoin="round" d="M 706.320 392.730 L 729.739 393.778 "/>
<path fill="#000000" d="M 726.411 154.808 C 773.870 149.671 822.336 144.425 866.552 139.639 L 869.789 169.547 C 825.573 174.333 777.107 179.579 729.648 184.715 L 726.411 154.808 Z"/>
<path fill="none" stroke="#000000" stroke-width="1" stroke-linecap="butt" stroke-linejoin="round" d="M 726.411 154.808 L 729.648 184.715 "/>
<path fill="#000000" d="M 592.281 404.337 C 573.312 333.701 551.135 263.926 532.166 193.290 L 561.219 185.487 C 580.188 256.123 595.951 327.621 614.921 398.257 L 592.281 404.337 Z"/>
<path fill="none" stroke="#000000" stroke-width="1" stroke-linecap="butt" stroke-linejoin="round" d="M 592.281 404.337 L 614.921 398.257 "/>
<path fill="#000000" d="M 545.074 174.435 C 599.644 168.528 663.657 161.600 726.411 154.808 L 729.648 184.715 C 666.894 191.508 602.881 198.436 548.311 204.342 L 545.074 174.435 Z"/>
<path fill="none" stroke="#000000" stroke-width="1" stroke-linecap="butt" stroke-linejoin="round" d="M 545.074 174.435 L 548.311 204.342 "/>
<path fill="#000000" d="M 249.235 73.914 C 283.978 78.877 353.455 88.802 353.467 88.804 L 349.209 118.584 C 349.200 118.583 279.724 108.657 244.981 103.694 L 249.235 73.914 Z"/>
<path fill="none" stroke="#000000" stroke-width="1" stroke-linecap="butt" stroke-linejoin="round" d="M 249.235 73.914 L 244.981 103.694 "/>
<path fill="#000000" d="M 365.586 98.875 C 365.601 98.919 477.931 431.847 477.938 431.870 L 449.442 441.508 C 449.427 441.464 337.097 108.536 337.090 108.513 L 365.586 98.875 Z"/>
<path fill="none" stroke="#000000" stroke-width="1" stroke-linecap="butt" stroke-linejoin="round" d="M 365.586 98.875 L 337.090 108.513 "/>
<path fill="#000000" d="M 548.311 204.342 C 512.460 208.223 475.830 212.187 439.589 216.110 L 436.352 186.202 C 472.593 182.280 509.223 178.315 545.074 174.435 L 548.311 204.342 Z"/>
<path fill="none" stroke="#000000" stroke-width="1" stroke-linecap="butt" stroke-linejoin="round" d="M 548.311 204.342 L 545.074 174.435 "/>
<path fill="#ffffff" d="M 504.321 280.554 C 649.484 280.786 794.653 277.699 939.816 277.932 L 939.768 308.014 C 794.605 307.781 649.447 304.228 504.284 303.995 L 504.321 280.554 Z"/>
<path fill="#ffffff" d="M 953.368 299.447 C 931.105 346.134 887.426 437.735 887.419 437.748 L 860.266 424.801 C 860.272 424.787 903.952 333.186 926.215 286.499 L 953.368 299.447 Z"/>
<path fill="none" stroke="#ffffff" stroke-width="1" stroke-linecap="butt" stroke-linejoin="round" d="M 953.368 299.447 L 926.215 286.499 "/>
<path fill="#ffffff" d="M 874.033 446.315 C 874.000 446.315 463.930 451.728 463.880 451.729 L 463.500 421.649 C 463.532 421.649 873.603 416.235 873.652 416.235 L 874.033 446.315 Z"/>
<path fill="none" stroke="#ffffff" stroke-width="1" stroke-linecap="butt" stroke-linejoin="round" d="M 874.033 446.315 L 873.652 416.235 "/>
<path fill="#ffffff" d="M 477.916 431.805 C 488.294 462.037 509.047 522.490 509.069 522.555 L 480.578 532.211 C 480.594 532.257 459.842 471.804 449.464 441.573 L 477.916 431.805 Z"/>
<path fill="none" stroke="#ffffff" stroke-width="1" stroke-linecap="butt" stroke-linejoin="round" d="M 477.916 431.805 L 449.464 441.573 "/>
<path fill="#ffffff" d="M 494.494 512.345 C 494.553 512.344 717.419 507.833 828.868 505.577 L 829.477 535.653 C 718.027 537.909 495.161 542.420 495.153 542.420 L 494.494 512.345 Z"/>
<path fill="none" stroke="#ffffff" stroke-width="1" stroke-linecap="butt" stroke-linejoin="round" d="M 494.494 512.345 L 495.153 542.420 "/>
<path fill="#ffffff" d="M 809.215 391.502 C 825.035 311.772 837.598 231.396 853.417 151.666 L 882.924 157.521 C 867.105 237.250 848.029 316.334 832.209 396.064 L 809.215 391.502 Z"/>
<path fill="none" stroke="#ffffff" stroke-width="1" stroke-linecap="butt" stroke-linejoin="round" d="M 809.215 391.502 L 832.209 396.064 "/>
<path fill="#ffffff" d="M 866.552 139.639 C 931.685 132.590 1011.634 123.936 1011.649 123.935 L 1014.885 153.843 C 1014.871 153.844 934.922 162.498 869.789 169.547 L 866.552 139.639 Z"/>
<path fill="none" stroke="#ffffff" stroke-width="1" stroke-linecap="butt" stroke-linejoin="round" d="M 866.552 139.639 L 869.789 169.547 "/>
<path fill="#ffffff" d="M 1026.831 145.389 C 1026.836 145.378 977.580 248.672 953.368 299.447 L 926.215 286.499 C 950.427 235.724 999.683 132.430 999.703 132.389 L 1026.831 145.389 Z"/>
<path fill="none" stroke="#ffffff" stroke-width="1" stroke-linecap="butt" stroke-linejoin="round" d="M 1026.831 145.389 L 999.703 132.389 "/>
<path fill="#ffffff" d="M 706.320 392.730 C 709.654 318.233 709.670 243.587 713.004 169.089 L 743.056 170.434 C 739.723 244.931 733.072 319.280 729.739 393.778 L 706.320 392.730 Z"/>
<path fill="none" stroke="#ffffff" stroke-width="1" stroke-linecap="butt" stroke-linejoin="round" d="M 706.320 392.730 L 729.739 393.778 "/>
<path fill="#ffffff" d="M 726.411 154.808 C 773.870 149.671 822.336 144.425 866.552 139.639 L 869.789 169.547 C 825.573 174.333 777.107 179.579 729.648 184.715 L 726.411 154.808 Z"/>
<path fill="none" stroke="#ffffff" stroke-width="1" stroke-linecap="butt" stroke-linejoin="round" d="M 726.411 154.808 L 729.648 184.715 "/>
<path fill="#ffffff" d="M 592.281 404.337 C 573.312 333.701 551.135 263.926 532.166 193.290 L 561.219 185.487 C 580.188 256.123 595.951 327.621 614.921 398.257 L 592.281 404.337 Z"/>
<path fill="none" stroke="#ffffff" stroke-width="1" stroke-linecap="butt" stroke-linejoin="round" d="M 592.281 404.337 L 614.921 398.257 "/>
<path fill="#ffffff" d="M 545.074 174.435 C 599.644 168.528 663.657 161.600 726.411 154.808 L 729.648 184.715 C 666.894 191.508 602.881 198.436 548.311 204.342 L 545.074 174.435 Z"/>
<path fill="none" stroke="#ffffff" stroke-width="1" stroke-linecap="butt" stroke-linejoin="round" d="M 545.074 174.435 L 548.311 204.342 "/>
<path fill="#ffffff" d="M 249.235 73.914 C 283.978 78.877 353.455 88.802 353.467 88.804 L 349.209 118.584 C 349.200 118.583 279.724 108.657 244.981 103.694 L 249.235 73.914 Z"/>
<path fill="none" stroke="#ffffff" stroke-width="1" stroke-linecap="butt" stroke-linejoin="round" d="M 249.235 73.914 L 244.981 103.694 "/>
<path fill="#ffffff" d="M 365.586 98.875 C 365.601 98.919 477.931 431.847 477.938 431.870 L 449.442 441.508 C 449.427 441.464 337.097 108.536 337.090 108.513 L 365.586 98.875 Z"/>
<path fill="none" stroke="#ffffff" stroke-width="1" stroke-linecap="butt" stroke-linejoin="round" d="M 365.586 98.875 L 337.090 108.513 "/>
<path fill="#ffffff" d="M 548.311 204.342 C 512.460 208.223 475.830 212.187 439.589 216.110 L 436.352 186.202 C 472.593 182.280 509.223 178.315 545.074 174.435 L 548.311 204.342 Z"/>
<path fill="none" stroke="#ffffff" stroke-width="1" stroke-linecap="butt" stroke-linejoin="round" d="M 548.311 204.342 L 545.074 174.435 "/>
</svg>
