<?xml version="1.0" encoding="utf-8"?>
<!-- Generator: Moho 12.5 build 22438 -->
<!DOCTYPE svg PUBLIC "-//W3C//DTD SVG 1.1//EN" "http://www.w3.org/Graphics/SVG/1.1/DTD/svg11.dtd">
<svg version="1.1" id="Frame_0" xmlns="http://www.w3.org/2000/svg" xmlns:xlink="http://www.w3.org/1999/xlink" width="1280px" height="720px">
<g id="Layer_12">
<path fill="#095b79" fill-rule="evenodd" stroke="none" d="M 664.136 627.074 C 670.110 625.718 670.922 489.391 678.912 421.148 C 683.647 380.704 709.516 343.415 709.542 343.381 C 709.540 343.430 730.492 458.563 739.263 459.810 C 752.736 461.725 825.054 310.506 1046.529 378.607 C 1059.930 382.727 1030.005 271.842 925.700 221.704 C 845.116 182.969 828.404 191.163 718.637 110.967 C 714.715 115.012 734.384 141.655 726.537 174.105 C 713.470 228.142 663.345 259.143 663.338 259.151 C 663.334 259.147 657.166 628.655 664.136 627.074 Z"/>
<path fill="#095b79" fill-rule="evenodd" stroke="none" d="M 664.210 625.851 C 658.166 624.834 653.334 488.457 647.655 419.944 C 644.475 381.570 623.971 344.579 623.946 344.547 C 623.949 344.594 597.910 457.599 589.176 458.606 C 575.657 460.164 503.378 279.062 281.911 377.403 C 267.266 383.906 298.434 270.638 402.739 220.500 C 483.323 181.765 500.035 189.959 609.802 109.764 C 613.724 113.808 594.063 140.449 601.902 172.902 C 614.946 226.904 665.002 257.917 665.008 257.926 C 665.013 257.921 671.258 627.037 664.210 625.851 Z"/>
<path fill="none" stroke="#000000" stroke-width="4" stroke-linecap="round" stroke-linejoin="round" d=""/>
<path fill="none" stroke="#000000" stroke-width="4" stroke-linecap="round" stroke-linejoin="round" d=""/>
<path fill="none" stroke="#000000" stroke-width="4" stroke-linecap="round" stroke-linejoin="round" d=""/>
<path fill="none" stroke="#000000" stroke-width="4" stroke-linecap="round" stroke-linejoin="round" d=""/>
<path fill="#8bdfff" fill-rule="evenodd" stroke="none" d="M 664.136 605.533 C 670.110 604.178 675.067 468.209 678.912 399.608 C 682.747 331.174 716.721 264.167 716.759 264.106 C 716.748 264.177 726.517 435.994 739.263 438.270 C 752.660 440.662 819.634 271.160 1046.529 357.066 C 1062.108 362.965 1030.005 250.302 925.700 200.164 C 845.116 161.429 828.404 169.623 718.637 89.427 C 714.715 93.472 734.384 120.115 726.537 152.565 C 713.470 206.602 663.345 237.603 663.338 237.611 C 663.334 237.607 657.166 607.114 664.136 605.533 Z"/>
<path fill="none" stroke="#000000" stroke-width="4" stroke-linecap="round" stroke-linejoin="round" d=""/>
<path fill="none" stroke="#000000" stroke-width="4" stroke-linecap="round" stroke-linejoin="round" d=""/>
<path fill="none" stroke="#000000" stroke-width="4" stroke-linecap="round" stroke-linejoin="round" d=""/>
<path fill="none" stroke="#000000" stroke-width="4" stroke-linecap="round" stroke-linejoin="round" d=""/>
<path fill="none" stroke="#000000" stroke-width="4" stroke-linecap="round" stroke-linejoin="round" d=""/>
<path fill="#8bdfff" fill-rule="evenodd" stroke="none" d="M 664.210 605.515 C 658.166 604.498 651.303 468.259 647.655 399.608 C 644.089 332.478 612.428 266.264 612.387 266.206 C 612.402 266.273 601.782 436.044 589.176 438.270 C 575.774 440.636 499.896 243.393 281.911 357.066 C 257.351 369.873 298.434 250.302 402.739 200.164 C 483.323 161.429 500.035 169.623 609.802 89.427 C 613.724 93.472 594.063 120.113 601.902 152.565 C 614.946 206.568 665.002 237.581 665.008 237.589 C 665.013 237.585 671.258 606.700 664.210 605.515 Z"/>
<path fill="none" stroke="#000000" stroke-width="4" stroke-linecap="round" stroke-linejoin="round" d=""/>
<path fill="none" stroke="#000000" stroke-width="4" stroke-linecap="round" stroke-linejoin="round" d=""/>
<path fill="none" stroke="#000000" stroke-width="4" stroke-linecap="round" stroke-linejoin="round" d=""/>
<path fill="none" stroke="#000000" stroke-width="4" stroke-linecap="round" stroke-linejoin="round" d=""/>
<path fill="none" stroke="#000000" stroke-width="4" stroke-linecap="round" stroke-linejoin="round" d=""/>
<path fill="none" stroke="#000000" stroke-width="4" stroke-linecap="round" stroke-linejoin="round" d=""/>
<path fill="none" stroke="#000000" stroke-width="4" stroke-linecap="round" stroke-linejoin="round" d=""/>
<path fill="none" stroke="#000000" stroke-width="4" stroke-linecap="round" stroke-linejoin="round" d=""/>
<path fill="none" stroke="#000000" stroke-width="4" stroke-linecap="round" stroke-linejoin="round" d=""/>
<path fill="none" stroke="#000000" stroke-width="4" stroke-linecap="round" stroke-linejoin="round" d=""/>
<path fill="none" stroke="#000000" stroke-width="4" stroke-linecap="round" stroke-linejoin="round" d=""/>
</g>
</svg>
